<svg width="19" height="24" viewBox="0 0 19 24" fill="none" xmlns="http://www.w3.org/2000/svg">
<path fill-rule="evenodd" clip-rule="evenodd" d="M13.7415 6.12242C13.7415 8.55698 11.7679 10.5306 9.33333 10.5306C6.89876 10.5306 4.92516 8.55698 4.92516 6.12242C4.92516 3.68786 6.89876 1.71426 9.33333 1.71426C11.7679 1.71426 13.7415 3.68786 13.7415 6.12242ZM15.2109 6.12242C15.2109 9.36851 12.5794 12 9.33333 12C6.08724 12 3.45577 9.36851 3.45577 6.12242C3.45577 2.87634 6.08724 0.244873 9.33333 0.244873C12.5794 0.244873 15.2109 2.87634 15.2109 6.12242ZM16.6803 19.102C16.6803 19.5665 16.5462 19.8911 16.3244 20.1593C16.0816 20.453 15.6699 20.7521 15.0182 21.0146C13.6887 21.5503 11.7129 21.7959 9.33332 21.7959C6.95374 21.7959 4.97794 21.5503 3.6484 21.0146C2.99677 20.7521 2.58508 20.453 2.34223 20.1593C2.12045 19.8911 1.98639 19.5665 1.98639 19.102C1.98639 18.6375 2.12045 18.313 2.34223 18.0447C2.58508 17.7511 2.99677 17.452 3.6484 17.1894C4.97794 16.6537 6.95374 16.4081 9.33332 16.4081C11.7129 16.4081 13.6887 16.6537 15.0182 17.1894C15.6699 17.452 16.0816 17.7511 16.3244 18.0447C16.5462 18.313 16.6803 18.6375 16.6803 19.102ZM18.1497 19.102C18.1497 22.2857 14.2024 23.2653 9.33332 23.2653C4.4642 23.2653 0.516998 22.2857 0.516998 19.102C0.516998 15.9183 4.4642 14.9388 9.33332 14.9388C14.2024 14.9388 18.1497 15.9183 18.1497 19.102Z" fill="#65676E"/>
</svg>
