<svg width="19" height="20" viewBox="0 0 19 20" fill="none" xmlns="http://www.w3.org/2000/svg">
<path d="M6.85992 18.5943V15.599C6.85992 14.8344 7.48431 14.2145 8.25452 14.2145H11.07C11.4399 14.2145 11.7946 14.3604 12.0562 14.62C12.3177 14.8797 12.4646 15.2318 12.4646 15.599V18.5943C12.4623 18.9122 12.5879 19.2179 12.8135 19.4435C13.0391 19.6691 13.3461 19.7959 13.6663 19.7959H15.5871C16.4843 19.7982 17.3454 19.4461 17.9806 18.8171C18.6158 18.1882 18.9728 17.3342 18.9728 16.4436V7.91041C18.9728 7.191 18.6515 6.5086 18.0957 6.04704L11.5612 0.866177C10.4245 -0.0422052 8.79592 -0.0128759 7.69317 0.935836L1.30783 6.04704C0.725683 6.49499 0.377744 7.17942 0.36055 7.91041V16.4349C0.36055 18.2911 1.87635 19.7959 3.74619 19.7959H5.6232C6.28828 19.7959 6.82879 19.2632 6.83361 18.603L6.85992 18.5943Z" fill="#65676E"/>
</svg>
