<svg width="22" height="18" viewBox="0 0 22 18" fill="none" xmlns="http://www.w3.org/2000/svg">
<path fill-rule="evenodd" clip-rule="evenodd" d="M8.19244 6.8571C9.29313 6.85792 10.1875 7.78233 10.1875 8.91645C10.1875 10.0522 9.29233 10.9766 8.19244 10.9766C7.09255 10.9766 6.19813 10.0522 6.19813 8.91645C6.19813 7.78068 7.09255 6.8571 8.19244 6.8571ZM8.19942 9.77011C8.67015 9.77011 9.05175 9.3885 9.05175 8.91778C9.05175 8.44705 8.67015 8.06545 8.19942 8.06545C7.72869 8.06545 7.34709 8.44705 7.34709 8.91778C7.34709 9.3885 7.72869 9.77011 8.19942 9.77011Z" fill="#65676E"/>
<path d="M14.9694 10.9532C14.9591 10.9432 14.9541 10.939 14.9491 10.9348C14.5485 10.5951 14.0459 10.4397 13.5282 10.4866C13.0113 10.5392 12.5462 10.7941 12.2165 11.207C12.2165 11.207 10.4818 13.3823 10.4014 13.4802C10.1879 13.6973 9.84225 13.6932 9.6296 13.4711L8.86661 12.6717C8.17928 12.0056 7.09212 12.0401 6.4478 12.7466L5.23083 14.0731C5.00384 14.319 5.0134 14.7105 5.25313 14.9441C5.36861 15.0576 5.51595 15.1135 5.66409 15.1135C5.82179 15.1135 5.97949 15.0494 6.09736 14.9211L7.31593 13.5945C7.51265 13.3798 7.84078 13.3683 8.02476 13.5443C8.03751 13.5599 8.7782 14.3363 8.7782 14.3363C9.44961 15.0436 10.5527 15.0551 11.2361 14.3626C11.2663 14.3322 11.2895 14.3089 13.1395 11.9916C13.2662 11.8329 13.4446 11.735 13.6429 11.7144C13.838 11.6947 14.0363 11.7556 14.1598 11.86C14.2761 11.9768 15.908 13.7063 15.908 13.7063C16.1382 13.9498 16.5173 13.9572 16.753 13.7179C16.9896 13.4802 16.9935 13.0895 16.7634 12.8461C15.5802 11.5915 15.1832 11.1728 15.0396 11.0243L14.9951 10.9788L14.9848 10.9684L14.9694 10.9532Z" fill="#65676E"/>
<path fill-rule="evenodd" clip-rule="evenodd" d="M1.3518 1.81594C0.929069 2.07288 0.714888 2.5406 0.714854 3.03529C0.714698 5.27054 0.714266 11.7204 0.714279 14.0731C0.714279 17.4445 5.31935 17.5714 11 17.5714C16.6806 17.5714 21.2857 17.3773 21.2857 14.0731C21.2857 10.8863 21.2853 5.12018 21.2851 3.03732C21.2851 2.54269 21.071 2.07285 20.6483 1.8159C19.7565 1.27373 17.9432 0.428589 15.3046 0.428589C14.5355 0.428589 13.9628 0.965786 13.9628 1.4987V4.42289C13.0246 4.48546 12.03 4.51908 11 4.51908C9.97001 4.51908 8.97539 4.48546 8.03716 4.42289V1.4987C8.02476 0.90131 7.31593 0.428933 6.69537 0.428933C4.05694 0.428933 2.24364 1.27386 1.3518 1.81594ZM11 5.90462C13.9058 5.90462 16.5763 5.64409 18.5552 5.20463C19.0475 5.09532 19.5153 4.97102 19.9439 4.82969V13.9077C19.9439 14.5217 19.6172 15.1025 19.0308 15.2849C18.6863 15.392 18.3323 15.4721 17.991 15.5478C16.2472 15.9351 13.7748 16.1859 11 16.1859C8.2252 16.1859 5.75282 15.9351 4.00901 15.5478C3.6677 15.4721 3.31371 15.392 2.96914 15.2849C2.3828 15.1025 2.05607 14.5217 2.05607 13.9077V4.82969C2.48474 4.97102 2.95255 5.09532 3.44479 5.20463C5.42368 5.64409 8.09415 5.90462 11 5.90462ZM2.05449 3.24048C2.04682 2.90403 2.04028 2.61697 2.79428 2.35974C3.62354 2.07684 4.82924 1.8241 6.31546 1.6448C6.51802 1.62036 6.69537 1.77939 6.69537 1.98342V4.30777C6.43723 4.28145 6.15446 4.24963 5.85638 4.21141L5.76506 4.19971C4.51568 4.03974 3.21973 3.8738 2.05607 3.34497C2.05607 3.30961 2.05527 3.27479 2.05449 3.24048ZM19.2057 2.35974C19.9439 2.61158 19.9439 2.94565 19.9439 3.34497C19.2606 3.81812 17.6807 4.01737 16.4364 4.17429C16.3364 4.1869 16.2386 4.19923 16.1436 4.21141C15.8455 4.24963 15.5628 4.28145 15.3046 4.30777V1.98342C15.3046 1.77939 15.482 1.62036 15.6845 1.6448C15.6845 1.6448 16.7655 1.7494 17.4531 1.889C18.1406 2.0286 19.2057 2.35974 19.2057 2.35974Z" fill="#65676E"/>
</svg>
